<svg width="25" height="24" viewBox="0 0 25 24" fill="none" xmlns="http://www.w3.org/2000/svg">
<path d="M23.75 0H15C14.0745 0.00313478 13.1833 0.350706 12.5 0.975C11.8167 0.350706 10.9255 0.00313478 10 0H1.25C0.918479 0 0.600537 0.131696 0.366116 0.366116C0.131696 0.600537 0 0.918479 0 1.25V20C0 20.3315 0.131696 20.6495 0.366116 20.8839C0.600537 21.1183 0.918479 21.25 1.25 21.25H8.4475C9.105 21.25 9.75 21.5175 10.215 21.9825L11.6163 23.3838C11.6275 23.395 11.6425 23.3988 11.6537 23.41C11.7612 23.5088 11.8812 23.5963 12.0212 23.655H12.0238C12.3287 23.7813 12.6713 23.7813 12.9762 23.655H12.9788C13.1188 23.5963 13.2388 23.5088 13.3463 23.41C13.3575 23.3988 13.3725 23.395 13.3837 23.3838L14.785 21.9825C15.2549 21.5154 15.8899 21.2522 16.5525 21.25H23.75C24.0815 21.25 24.3995 21.1183 24.6339 20.8839C24.8683 20.6495 25 20.3315 25 20V1.25C25 0.918479 24.8683 0.600537 24.6339 0.366116C24.3995 0.131696 24.0815 0 23.75 0ZM8.4475 18.75H2.5V2.5H10C10.69 2.5 11.25 3.06125 11.25 3.75V19.6112C10.4218 19.0528 9.44637 18.753 8.4475 18.75ZM22.5 18.75H16.5525C15.5537 18.75 14.5725 19.0575 13.75 19.6112V3.75C13.75 3.06125 14.31 2.5 15 2.5H22.5V18.75Z" fill="#CED4DA"/>
</svg>
