<svg width="57" height="68" viewBox="0 0 57 68" fill="none" xmlns="http://www.w3.org/2000/svg">
<path d="M56.75 61.23V13.98C56.75 10.2574 53.9469 7.22998 50.5 7.22998H44.25V0.47998H38V7.22998H19.25V0.47998H13V7.22998H6.75C3.30312 7.22998 0.5 10.2574 0.5 13.98V61.23C0.5 64.9526 3.30312 67.98 6.75 67.98H50.5C53.9469 67.98 56.75 64.9526 56.75 61.23ZM19.25 54.48H13V47.73H19.25V54.48ZM19.25 40.98H13V34.23H19.25V40.98ZM31.75 54.48H25.5V47.73H31.75V54.48ZM31.75 40.98H25.5V34.23H31.75V40.98ZM44.25 54.48H38V47.73H44.25V54.48ZM44.25 40.98H38V34.23H44.25V40.98ZM50.5 24.105H6.75V17.355H50.5V24.105Z" fill="black"/>
</svg>
