<svg width="36" height="23" viewBox="0 0 36 23" fill="none" xmlns="http://www.w3.org/2000/svg">
<path d="M32.625 0C34.4883 0 36 1.28716 36 2.875C36 3.77943 35.5008 4.62995 34.65 5.175L19.35 14.95C18.5484 15.4591 17.4516 15.4591 16.65 14.95L1.35 5.175C0.500133 4.62995 0 3.77943 0 2.875C0 1.28716 1.51102 0 3.375 0H32.625ZM15.3 16.4833C16.9031 17.5076 19.0969 17.5076 20.7 16.4833L36 6.70833V19.1667C36 21.281 33.982 23 31.5 23H4.5C2.01445 23 0 21.281 0 19.1667V6.70833L15.3 16.4833Z" fill="#4361EE"/>
</svg>
