<svg width="23" height="27" viewBox="0 0 23 27" fill="none" xmlns="http://www.w3.org/2000/svg">
<path d="M10.0805 26.3933C6.95391 22.999 0 14.7722 0 10.1513C0 4.54481 5.14865 0 11.5 0C17.849 0 23 4.54481 23 10.1513C23 14.7722 15.9922 22.999 12.9195 26.3933C12.1828 27.2022 10.8172 27.2022 10.0805 26.3933ZM11.5 13.535C13.6143 13.535 15.3333 12.0176 15.3333 10.1513C15.3333 8.28492 13.6143 6.76751 11.5 6.76751C9.38568 6.76751 7.66667 8.28492 7.66667 10.1513C7.66667 12.0176 9.38568 13.535 11.5 13.535Z" fill="#4361EE"/>
</svg>
