<svg width="50" height="51" viewBox="0 0 50 51" fill="none" xmlns="http://www.w3.org/2000/svg">
<path d="M25 0C18.2038 0 17.3569 0.0334729 14.6971 0.148237C12.0265 0.282129 10.22 0.704526 8.62608 1.33573C6.95784 1.97812 5.44703 2.9839 4.19896 4.28294C2.92184 5.553 1.93524 7.09488 1.30954 8.7986C0.690711 10.4244 0.276597 12.267 0.145331 14.9911C0.0250031 17.7056 0 18.5679 0 25.5C0 32.4321 0.0328166 33.296 0.145331 36.0089C0.276597 38.725 0.690711 40.5756 1.30954 42.2014C1.93934 43.903 2.92539 45.444 4.19896 46.7171C5.44411 48.0197 6.95576 49.0261 8.62608 49.6643C10.22 50.2875 12.0343 50.7179 14.6971 50.8518C17.3584 50.9745 18.2038 51 25 51C31.7962 51 32.6431 50.9665 35.3029 50.8518C37.9657 50.7179 39.78 50.2859 41.3739 49.6643C43.0422 49.0219 44.553 48.0161 45.801 46.7171C47.0798 45.4484 48.0667 43.9061 48.6905 42.2014C49.3015 40.5756 49.7234 38.725 49.8547 36.0089C49.975 33.2944 50 32.4321 50 25.5C50 18.5679 49.9672 17.704 49.8547 14.9911C49.7234 12.275 49.2999 10.4149 48.6905 8.7986C48.0607 7.097 47.0746 5.55597 45.801 4.28294C44.5572 2.9786 43.0452 1.972 41.3739 1.33573C39.78 0.704526 37.9657 0.282129 35.3029 0.148237C32.6416 0.0255032 31.7962 0 25 0ZM25 4.59057C31.6743 4.59057 32.4712 4.62405 35.1091 4.73881C37.5422 4.85517 38.8674 5.2696 39.7472 5.62027C40.8348 6.02979 41.8193 6.6816 42.6288 7.52822C43.4574 8.35042 44.094 9.35225 44.4915 10.4595C44.8353 11.3569 45.2416 12.7086 45.3557 15.1903C45.4682 17.8809 45.501 18.6954 45.501 25.5016C45.501 32.3078 45.4682 33.1223 45.3463 35.8129C45.215 38.2946 44.8087 39.6463 44.4665 40.5437C43.993 41.7407 43.4648 42.5776 42.5928 43.4829C41.7806 44.3243 40.7968 44.9729 39.7112 45.3829C38.8424 45.7336 37.4984 46.148 35.0559 46.2644C32.404 46.3791 31.6227 46.4126 24.9312 46.4126C18.2398 46.4126 17.46 46.3791 14.805 46.2548C12.3719 46.1209 11.0295 45.7065 10.1497 45.3574C8.96206 44.8745 8.14789 44.3357 7.27591 43.4463C6.39611 42.5489 5.83667 41.6945 5.40536 40.507C5.05532 39.6208 4.65527 38.25 4.52557 35.7587C4.43649 33.0856 4.3943 32.2568 4.3943 25.4633C4.3943 18.6731 4.43649 17.8427 4.52557 15.1361C4.65527 12.6448 5.05532 11.2772 5.40536 10.3878C5.83667 9.17477 6.39768 8.34592 7.27591 7.44852C8.14633 6.56069 8.96206 5.98687 10.1497 5.53738C11.0295 5.1883 12.339 4.77388 14.7815 4.64955C17.4334 4.55232 18.2148 4.51725 24.8969 4.51725L25 4.59057ZM25 12.4121C23.3144 12.4115 21.6452 12.7496 20.0878 13.4073C18.5303 14.065 17.1152 15.0292 15.9233 16.245C14.7314 17.4607 13.7861 18.9041 13.1413 20.4927C12.4965 22.0813 12.165 23.7839 12.1656 25.5032C12.165 27.2225 12.4965 28.9251 13.1413 30.5137C13.7861 32.1022 14.7314 33.5457 15.9233 34.7614C17.1152 35.9771 18.5303 36.9414 20.0878 37.5991C21.6452 38.2567 23.3144 38.5949 25 38.5943C26.6856 38.5949 28.3548 38.2567 29.9122 37.5991C31.4697 36.9414 32.8848 35.9771 34.0767 34.7614C35.2686 33.5457 36.2139 32.1022 36.8587 30.5137C37.5035 28.9251 37.835 27.2225 37.8344 25.5032C37.835 23.7839 37.5035 22.0813 36.8587 20.4927C36.2139 18.9041 35.2686 17.4607 34.0767 16.245C32.8848 15.0292 31.4697 14.065 29.9122 13.4073C28.3548 12.7496 26.6856 12.4115 25 12.4121ZM25 34.0037C20.3932 34.0037 16.6661 30.2021 16.6661 25.5032C16.6661 20.8042 20.3932 17.0027 25 17.0027C29.6068 17.0027 33.3339 20.8042 33.3339 25.5032C33.3339 30.2021 29.6068 34.0037 25 34.0037ZM41.352 11.8893C41.3512 12.7016 41.0342 13.4805 40.4708 14.0546C39.9073 14.6287 39.1434 14.9512 38.347 14.9512C37.9532 14.9512 37.5632 14.8721 37.1994 14.7184C36.8356 14.5647 36.505 14.3394 36.2265 14.0553C35.948 13.7713 35.7271 13.4341 35.5764 13.063C35.4257 12.6919 35.3482 12.2941 35.3482 11.8925C35.3482 11.4908 35.4257 11.093 35.5764 10.7219C35.7271 10.3508 35.948 10.0136 36.2265 9.72956C36.505 9.44553 36.8356 9.22022 37.1994 9.0665C37.5632 8.91278 37.9532 8.83367 38.347 8.83367C39.9987 8.83367 41.352 10.2045 41.352 11.8893Z" fill="white"/>
</svg>
