<svg width="20" height="20" viewBox="0 0 20 20" fill="none" xmlns="http://www.w3.org/2000/svg">
<path d="M10.0001 0C4.48603 0 0 4.30834 0 9.60396C0 14.8996 4.48603 19.2079 10.0001 19.2079C15.5141 19.2079 20.0001 14.8996 20.0001 9.60396C20.0001 4.30834 15.5141 0 10.0001 0ZM17.9311 8.64356H15.1671C15.0437 6.54149 14.4314 4.4927 13.3751 2.64781C14.5993 3.19721 15.659 4.035 16.4555 5.08329C17.2521 6.13158 17.7597 7.3563 17.9311 8.64356ZM10.5301 1.94672C11.5651 3.2567 12.9571 5.57702 13.1571 8.64356H7.03004C7.16904 6.15038 8.02405 3.81469 9.48106 1.94576C9.65306 1.93616 9.82506 1.92079 10.0001 1.92079C10.1791 1.92079 10.3541 1.93616 10.5301 1.94672ZM6.68804 2.619C5.70403 4.43511 5.13603 6.4942 5.03003 8.64356H2.06901C2.24178 7.34495 2.75665 6.11014 3.56491 5.05592C4.37318 4.00171 5.44811 3.16296 6.68804 2.619ZM2.06901 10.5644H5.04303C5.17903 12.8491 5.70803 14.865 6.59904 16.5476C5.38123 15.9963 4.32775 15.1591 3.53598 14.1133C2.74421 13.0675 2.23968 11.8469 2.06901 10.5644ZM9.45006 17.2612C8.04905 15.6304 7.22204 13.3457 7.04104 10.5644H13.1541C12.9461 13.2275 12.0371 15.5546 10.5511 17.2602C10.3691 17.2718 10.1871 17.2871 10.0001 17.2871C9.81406 17.2871 9.63306 17.2718 9.45006 17.2612ZM13.4611 16.5198C14.4161 14.7968 14.9991 12.7733 15.1521 10.5644H17.9301C17.7613 11.8362 17.2641 13.0473 16.4835 14.0874C15.703 15.1276 14.664 15.9637 13.4611 16.5198Z" fill="#1E90FF"/>
</svg>
