<svg width="19" height="25" viewBox="0 0 19 25" fill="none" xmlns="http://www.w3.org/2000/svg">
<path d="M8.28899 23.931C5.7445 20.8939 0.0852051 13.5332 0.0852051 9.39863C0.0852051 4.38233 4.27533 0.315918 9.44425 0.315918C14.6112 0.315918 18.8033 4.38233 18.8033 9.39863C18.8033 13.5332 13.1001 20.8939 10.5995 23.931C9.99994 24.6548 8.88855 24.6548 8.28899 23.931ZM9.44425 12.4262C11.1649 12.4262 12.5639 11.0685 12.5639 9.39863C12.5639 7.72874 11.1649 6.37106 9.44425 6.37106C7.72355 6.37106 6.32457 7.72874 6.32457 9.39863C6.32457 11.0685 7.72355 12.4262 9.44425 12.4262Z" fill="#4361EE"/>
</svg>
