<svg width="25" height="25" viewBox="0 0 25 25" fill="none" xmlns="http://www.w3.org/2000/svg">
<path d="M24.9609 18.8968L23.8257 23.8186C23.6662 24.5144 23.0547 25.0013 22.3384 25.0013C10.0195 25.0003 0 14.9807 0 2.66142C0 1.9456 0.486768 1.33329 1.18262 1.1746L6.10449 0.0393499C6.82129 -0.126763 7.55371 0.245307 7.85156 0.924115L10.123 6.22196C10.3886 6.84599 10.2095 7.57304 9.68457 8.00175L7.05566 10.1126C8.71484 13.4925 11.4629 16.2405 14.8438 17.9007L16.9961 15.2737C17.4203 14.7474 18.1528 14.5652 18.7769 14.8355L24.0747 17.1065C24.7119 17.4417 25.127 18.1839 24.9609 18.8968Z" fill="#4361EE"/>
</svg>
