<svg width="25" height="25" viewBox="0 0 25 25" fill="none" xmlns="http://www.w3.org/2000/svg">
<path d="M6.24375 12.5C6.24375 15.9513 9.05125 18.7588 12.5025 18.7588C15.9537 18.7588 18.7612 15.9513 18.7612 12.5C18.7612 9.04875 15.9537 6.24125 12.5025 6.24125C9.05125 6.24125 6.24375 9.04875 6.24375 12.5ZM12.5025 8.74125C14.575 8.74125 16.2612 10.4275 16.2612 12.5C16.2612 14.5725 14.575 16.2588 12.5025 16.2588C10.43 16.2588 8.74375 14.5725 8.74375 12.5C8.74375 10.4275 10.43 8.74125 12.5025 8.74125ZM11.25 21.25H13.75V25H11.25V21.25ZM11.25 0H13.75V3.75H11.25V0ZM0 11.25H3.75V13.75H0V11.25ZM21.25 11.25H25V13.75H21.25V11.25ZM2.77625 20.4538L5.42625 17.8012L7.195 19.5688L4.545 22.2213L2.77625 20.4538ZM17.8025 5.43L20.455 2.7775L22.2225 4.545L19.57 7.1975L17.8025 5.43ZM5.43 7.19875L2.7775 4.54625L4.54625 2.77875L7.19625 5.43125L5.43 7.19875ZM22.2225 20.455L20.455 22.2225L17.8025 19.57L19.57 17.8025L22.2225 20.455Z" fill="black"/>
</svg>
