<svg width="75" height="75" viewBox="0 0 75 75" fill="none" xmlns="http://www.w3.org/2000/svg">
<path d="M13.8159 7.03125C13.8159 3.14795 16.4681 0 19.737 0C23.0059 0 25.658 3.14795 25.658 7.03125C25.658 10.9146 23.0059 14.0625 19.737 14.0625C16.4681 14.0625 13.8159 10.9146 13.8159 7.03125ZM14.8028 75C12.6194 75 10.8554 72.9053 10.8554 70.3125V37.6318L7.33115 44.6045C6.20862 46.8164 3.78346 47.5342 1.91463 46.2012C0.0458058 44.8682 -0.558634 41.9971 0.56513 39.7705L7.75303 25.5762C9.89323 21.3428 13.7419 18.75 17.899 18.75H35.5264V7.03125C35.5264 3.14795 38.1785 4.39453e-05 41.4474 4.39453e-05H69.079C72.3479 4.39453e-05 75 3.14795 75 7.03125V39.8438C75 43.7256 72.3479 46.875 69.079 46.875H41.4474C38.1785 46.875 35.5264 43.7256 35.5264 39.8438V32.8125H43.4211V37.5H67.1053V9.375H43.4211V18.75H45.3948C47.5782 18.75 49.3422 20.8447 49.3422 23.4375C49.3422 26.0303 47.5782 28.125 45.3948 28.125H28.6185V70.3125C28.6185 72.9053 26.8545 75 24.6712 75C22.4878 75 20.7238 72.9053 20.7238 70.3125V51.5625H18.7501V70.3125C18.7501 72.9053 16.9861 75 14.8028 75Z" fill="black"/>
</svg>
