<svg width="50" height="51" viewBox="0 0 50 51" fill="none" xmlns="http://www.w3.org/2000/svg">
<path d="M50 25.5C50 32.263 47.3661 38.749 42.6777 43.5312C37.9893 48.3134 31.6304 51 25 51C18.3696 51 12.0107 48.3134 7.32233 43.5312C2.63392 38.749 0 32.263 0 25.5C0 18.737 2.63392 12.251 7.32233 7.46878C12.0107 2.6866 18.3696 0 25 0C31.6304 0 37.9893 2.6866 42.6777 7.46878C47.3661 12.251 50 18.737 50 25.5ZM25.8969 18.8254C23.4656 19.8581 18.6031 21.9937 11.3156 25.2323C10.1344 25.7104 9.5125 26.1821 9.45625 26.6411C9.3625 27.4157 10.3156 27.7217 11.6125 28.1392L12.1594 28.3146C13.4344 28.7385 15.1531 29.2326 16.0437 29.2517C16.8562 29.2708 17.7594 28.9329 18.7563 28.2317C25.5656 23.5429 29.0813 21.1746 29.3 21.1236C29.4563 21.0853 29.675 21.0407 29.8187 21.1746C29.9656 21.3053 29.95 21.5571 29.9344 21.624C29.8406 22.0352 26.1 25.5797 24.1656 27.4157C23.5625 27.9894 23.1344 28.3943 23.0469 28.4867C22.8542 28.6875 22.6583 28.8852 22.4594 29.0796C21.2719 30.2462 20.3844 31.1196 22.5063 32.5476C23.5281 33.2361 24.3469 33.8002 25.1625 34.3676C26.05 34.986 26.9375 35.6012 28.0875 36.3726C28.3781 36.5638 28.6594 36.771 28.9313 36.9686C29.9656 37.7209 30.9 38.3966 32.0469 38.2882C32.7156 38.2245 33.4062 37.587 33.7562 35.6745C34.5844 31.1578 36.2125 21.3754 36.5875 17.3432C36.6104 17.008 36.5968 16.6713 36.5469 16.3391C36.5175 16.0711 36.3903 15.8242 36.1906 15.6474C35.9063 15.4472 35.5673 15.3435 35.2219 15.351C34.2844 15.3669 32.8375 15.8801 25.8969 18.8254Z" fill="white"/>
</svg>
